<svg height="464pt" viewBox="0 -4 464 464" width="464pt" xmlns="http://www.w3.org/2000/svg"><path d="m272 160h-8c-15.320312.460938-30 6.261719-41.496094 16.398438l-6.113281 6.097656c-3.363281 3.480468-6.191406 7.441406-8.390625 11.75-2.199219-4.3125-5.03125-8.273438-8.398438-11.75l-6.105468-6.097656c-11.496094-10.136719-26.175782-15.9375-41.496094-16.398438h-8c-4.417969 0-8 3.582031-8 8v8c.464844 15.324219 6.265625 30.003906 16.398438 41.503906l6.105468 6.097656c11.496094 10.136719 26.175782 15.9375 41.496094 16.398438h16c15.320312-.460938 30-6.261719 41.496094-16.398438l6.113281-6.097656c10.128906-11.503906 15.925781-26.183594 16.390625-41.503906v-8c0-4.417969-3.582031-8-8-8zm0 0" fill="#c8d952"/><path d="m245.65625 194.34375c-3.125-3.121094-8.1875-3.121094-11.3125 0l-26.34375 26.34375-26.34375-26.34375c-3.140625-3.03125-8.128906-2.988281-11.214844.097656-3.085937 3.085938-3.128906 8.074219-.097656 11.214844l32 32c3.125 3.121094 8.1875 3.121094 11.3125 0l32-32c3.121094-3.125 3.121094-8.1875 0-11.3125zm0 0" fill="#238892"/><path d="m80 232h304c44.183594 0 80 35.816406 80 80v16c0 44.183594-35.816406 80-80 80h-304c-44.183594 0-80-35.816406-80-80v-16c0-44.183594 35.816406-80 80-80zm0 0" fill="#cfdfe8"/><path d="m72 360h16c13.253906 0 24 10.746094 24 24s-10.746094 24-24 24h-16c-13.253906 0-24-10.746094-24-24s10.746094-24 24-24zm0 0" fill="#d3843d"/><path d="m104 408h32c13.253906 0 24 10.746094 24 24s-10.746094 24-24 24h-32c-13.253906 0-24-10.746094-24-24s10.746094-24 24-24zm0 0" fill="#d3843d"/><path d="m24 408h32c13.253906 0 24 10.746094 24 24s-10.746094 24-24 24h-32c-13.253906 0-24-10.746094-24-24s10.746094-24 24-24zm0 0" fill="#d3843d"/><g fill="#7d8d9c"><path d="m344 304c-7.867188-.265625-15.117188-4.316406-19.472656-10.871094-3.398438-4.089844-4.597656-5.121094-7.199219-5.121094-2.695313 0-4 1.25-7.199219 5.128907-4.171875 6.757812-11.546875 10.871093-19.488281 10.871093s-15.316406-4.113281-19.488281-10.871093c-3.199219-3.871094-4.496094-5.121094-7.199219-5.121094-4.417969 0-8-3.582031-8-8s3.582031-8 8-8c7.871094.261719 15.128906 4.3125 19.488281 10.871094 3.199219 3.875 4.496094 5.121093 7.199219 5.121093s4-1.246093 7.199219-5.121093c4.167968-6.757813 11.539062-10.871094 19.480468-10.871094 7.9375 0 15.3125 4.113281 19.480469 10.871094 3.398438 4.089843 4.597657 5.121093 7.199219 5.121093 4.417969 0 8 3.582032 8 8 0 4.417969-3.582031 8-8 8zm0 0"/><path d="m160 304c-7.867188-.265625-15.121094-4.320312-19.472656-10.878906-3.398438-4.089844-4.597656-5.121094-7.199219-5.121094-2.695313 0-4 1.246094-7.199219 5.128906-4.351562 6.546875-11.59375 10.59375-19.449218 10.871094-7.867188-.269531-15.121094-4.316406-19.480469-10.871094-3.199219-3.882812-4.496094-5.128906-7.199219-5.128906-4.417969 0-8-3.582031-8-8s3.582031-8 8-8c7.871094.265625 15.128906 4.316406 19.488281 10.871094 3.199219 3.882812 4.496094 5.128906 7.199219 5.128906s4-1.246094 7.199219-5.128906c4.359375-6.550782 11.609375-10.601563 19.472656-10.871094 7.855469.277344 15.097656 4.328125 19.441406 10.878906 3.398438 4.089844 4.597657 5.121094 7.199219 5.121094 4.417969 0 8 3.582031 8 8s-3.582031 8-8 8zm0 0"/><path d="m400 368c-7.867188-.265625-15.121094-4.320312-19.472656-10.878906-3.398438-4.089844-4.597656-5.121094-7.199219-5.121094-2.695313 0-4 1.246094-7.199219 5.128906-4.171875 6.757813-11.546875 10.871094-19.488281 10.871094s-15.316406-4.113281-19.488281-10.871094c-3.199219-3.882812-4.496094-5.128906-7.199219-5.128906-4.417969 0-8-3.582031-8-8s3.582031-8 8-8c7.867187.265625 15.125 4.316406 19.488281 10.871094 3.199219 3.882812 4.496094 5.128906 7.199219 5.128906s4-1.246094 7.199219-5.128906c4.164062-6.761719 11.539062-10.878906 19.480468-10.878906 7.941407 0 15.3125 4.117187 19.480469 10.878906 3.398438 4.089844 4.597657 5.121094 7.199219 5.121094 4.417969 0 8 3.582031 8 8 0 4.417968-3.582031 8-8 8zm0 0"/><path d="m216 368c-7.867188-.265625-15.117188-4.316406-19.472656-10.871094-3.398438-4.089844-4.597656-5.121094-7.199219-5.121094-2.695313 0-4 1.25-7.199219 5.128907-4.171875 6.757812-11.546875 10.871093-19.488281 10.871093s-15.316406-4.113281-19.488281-10.871093c-3.199219-3.871094-4.496094-5.121094-7.199219-5.121094-4.417969 0-8-3.582031-8-8s3.582031-8 8-8c7.871094.261719 15.128906 4.3125 19.488281 10.871094 3.199219 3.875 4.496094 5.121093 7.199219 5.121093s4-1.246093 7.199219-5.121093c4.167968-6.757813 11.539062-10.871094 19.480468-10.871094 7.9375 0 15.3125 4.113281 19.480469 10.871094 3.398438 4.089843 4.597657 5.121093 7.199219 5.121093 4.417969 0 8 3.582032 8 8 0 4.417969-3.582031 8-8 8zm0 0"/></g><path d="m88 192c-4.417969 0-8-3.582031-8-8-.09375-6.207031 1.699219-12.296875 5.144531-17.464844 3.796875-5.546875 3.796875-12.851562 0-18.398437-6.855469-10.625-6.855469-24.273438 0-34.898438 1.960938-2.671875 2.96875-5.925781 2.855469-9.238281 0-4.417969 3.582031-8 8-8s8 3.582031 8 8c.09375 6.199219-1.699219 12.285156-5.144531 17.441406-3.800781 5.542969-3.800781 12.855469 0 18.398438 6.855469 10.632812 6.855469 24.289062 0 34.921875-1.957031 2.671875-2.964844 5.925781-2.855469 9.238281 0 4.417969-3.582031 8-8 8zm0 0" fill="#fdbd40"/><path d="m24 176c-4.417969 0-8-3.582031-8-8-.09375-6.207031 1.699219-12.296875 5.144531-17.464844 3.796875-5.546875 3.796875-12.851562 0-18.398437-6.855469-10.625-6.855469-24.273438 0-34.898438 1.960938-2.671875 2.96875-5.925781 2.855469-9.238281 0-4.417969 3.582031-8 8-8s8 3.582031 8 8c.09375 6.199219-1.699219 12.285156-5.144531 17.441406-3.800781 5.542969-3.800781 12.855469 0 18.398438 6.855469 10.632812 6.855469 24.289062 0 34.921875-1.957031 2.671875-2.964844 5.925781-2.855469 9.238281 0 4.417969-3.582031 8-8 8zm0 0" fill="#fdbd40"/><path d="m304 112c-4.417969 0-8-3.582031-8-8-.09375-6.207031 1.699219-12.296875 5.144531-17.464844 3.796875-5.546875 3.796875-12.851562 0-18.398437-3.453125-5.175781-5.246093-11.277344-5.144531-17.496094-.09375-6.199219 1.699219-12.285156 5.144531-17.441406 1.953125-2.660157 2.957031-5.898438 2.855469-9.199219 0-4.417969 3.582031-8 8-8s8 3.582031 8 8c.09375 6.199219-1.699219 12.285156-5.144531 17.441406-1.953125 2.660156-2.957031 5.898438-2.855469 9.199219-.101562 3.304687.90625 6.546875 2.855469 9.214844 6.855469 10.632812 6.855469 24.289062 0 34.921875-1.953125 2.667968-2.960938 5.914062-2.855469 9.222656 0 4.417969-3.582031 8-8 8zm0 0" fill="#fdbd40"/><path d="m240 96c-4.417969 0-8-3.582031-8-8-.09375-6.207031 1.699219-12.296875 5.144531-17.464844 1.949219-2.667968 2.957031-5.910156 2.855469-9.214844.101562-3.308593-.90625-6.554687-2.863281-9.222656-3.441407-5.164062-5.230469-11.253906-5.136719-17.457031-.09375-6.199219 1.699219-12.285156 5.144531-17.441406 1.953125-2.660157 2.957031-5.898438 2.855469-9.199219 0-4.417969 3.582031-8 8-8s8 3.582031 8 8c.09375 6.199219-1.699219 12.285156-5.144531 17.441406-1.953125 2.660156-2.957031 5.898438-2.855469 9.199219-.101562 3.304687.90625 6.546875 2.855469 9.214844 3.445312 5.167969 5.238281 11.257812 5.144531 17.464843.09375 6.203126-1.695312 12.292969-5.136719 17.457032-1.957031 2.667968-2.964843 5.914062-2.863281 9.222656 0 4.417969-3.582031 8-8 8zm0 0" fill="#fdbd40"/><path d="m376 136h16c13.253906 0 24 10.746094 24 24s-10.746094 24-24 24h-16c-13.253906 0-24-10.746094-24-24s10.746094-24 24-24zm0 0" fill="#d3843d"/><path d="m408 184h32c13.253906 0 24 10.746094 24 24s-10.746094 24-24 24h-32c-13.253906 0-24-10.746094-24-24s10.746094-24 24-24zm0 0" fill="#d3843d"/><path d="m328 184h32c13.253906 0 24 10.746094 24 24s-10.746094 24-24 24h-32c-13.253906 0-24-10.746094-24-24s10.746094-24 24-24zm0 0" fill="#d3843d"/></svg>