<svg id="bold" height="512" viewBox="0 0 32 32" width="512" xmlns="http://www.w3.org/2000/svg"><path d="m26 32h-20c-3.314 0-6-2.686-6-6v-20c0-3.314 2.686-6 6-6h20c3.314 0 6 2.686 6 6v20c0 3.314-2.686 6-6 6z" fill="#f5e6fe"/><g fill="#be63f9"><path d="m21.845 13.621c.115.031.232.046.348.046.23 0 .459-.061.664-.179.637-.368.855-1.185.488-1.822-.368-.636-1.186-.855-1.822-.488-.309.178-.529.465-.621.81-.031.117-.041.235-.04.352l-1.129.76c-.724-.91-1.78-1.54-2.983-1.713v-.905c.397-.231.667-.656.667-1.148 0-.736-.599-1.334-1.334-1.334s-1.333.598-1.333 1.333c0 .491.27.917.667 1.148v.905c-1.198.173-2.251.799-2.975 1.702l-1.484-1.086c-.048-.284-.213-.547-.482-.702-.478-.276-1.09-.112-1.366.366s-.112 1.09.366 1.366c.241.139.516.166.765.098l1.521 1.114c-.221.543-.346 1.135-.346 1.756 0 .612.122 1.195.336 1.73l-.781.451c-.099-.057-.203-.106-.317-.136-.344-.091-.702-.045-1.011.134-.637.367-.855 1.184-.488 1.821.247.427.696.666 1.158.666.226 0 .455-.058.664-.178.309-.178.529-.465.621-.81.03-.113.04-.228.041-.342l.783-.453c.725.918 1.785 1.555 2.995 1.73v.905c-.397.231-.667.656-.667 1.148 0 .735.598 1.333 1.333 1.333s1.333-.598 1.333-1.333c0-.491-.27-.917-.667-1.148v-.905c1.198-.173 2.251-.799 2.975-1.703l1.302.952c.01.335.185.657.497.837.478.276 1.09.112 1.366-.366s.112-1.09-.366-1.366c-.198-.114-.419-.149-.629-.122l-1.49-1.09c.221-.543.346-1.135.346-1.756 0-.618-.123-1.207-.343-1.747l1.132-.761c.096.054.197.101.306.13zm-5.762 5.712c-1.838 0-3.333-1.495-3.333-3.333s1.495-3.333 3.333-3.333c.287 0 .56.048.826.116-.097.224-.159.465-.159.717 0 .653.35 1.263.915 1.592.079.047.166.068.251.068.172 0 .339-.089.432-.248.139-.238.059-.545-.18-.684-.258-.151-.419-.43-.419-.729 0-.115.029-.226.075-.329.951.588 1.592 1.631 1.592 2.829.001 1.839-1.495 3.334-3.333 3.334z"/><circle cx="16.75" cy="17.333" r=".667"/><path d="m14.986 14.391c-.195.195-.195.512 0 .707.13.13.13.341 0 .471s-.341.13-.471 0c-.195-.195-.512-.195-.707 0s-.195.512 0 .707c.26.26.602.39.943.39s.683-.13.943-.39c.52-.52.52-1.366 0-1.885-.197-.196-.513-.196-.708 0z"/></g></svg>